<svg width="85" height="136" viewBox="0 0 85 136" fill="none" xmlns="http://www.w3.org/2000/svg">
<path id="Vector" d="M77.0893 40.5341L45.8237 51.9168L40.9947 38.6123L1.30297 0.76844C1.22905 0.743802 1.15514 0.719164 1.08123 0.76844C0.933398 0.817716 0.859481 0.965543 0.908757 1.11337L31.0902 83.9707L48.5585 77.6142L36.683 99.3695L49.7412 135.242C49.7904 135.39 49.9383 135.464 50.0861 135.415C50.1354 135.39 50.1846 135.365 50.2093 135.316L51.047 133.764L71.3733 96.4622C71.3979 96.3883 71.4225 96.3144 71.3979 96.2404C71.3486 96.0926 71.2008 96.0187 71.053 96.068L62.6268 99.1477L84.0864 59.8009L77.0893 40.5341Z" fill="white"/>
</svg>
