<svg xmlns="http://www.w3.org/2000/svg" width="135.72" height="19" viewBox="0 0 135.72 19">
    <defs>
        <style>
            .cls-1{fill:#231f20}
        </style>
    </defs>
    <g id="Lab_Zero_Logo" data-name="Lab Zero Logo" transform="translate(-102 -110)">
        <path id="Path_306" d="M0 18.65V.35h1.76V17h8.85v1.66H0z" class="cls-1" data-name="Path 306" transform="translate(102 110)"/>
        <path id="Path_307" d="M28.86 18.65l-1.91-5.69h-7.39l-1.88 5.69h-1.76L22.12.29h2.33l6.2 18.36zM23.28 1.91h-.05l-3.1 9.4h6.27z" class="cls-1" data-name="Path 307" transform="translate(102 110)"/>
        <path id="Path_308" d="M44.14 18.65H37V.35h6.79c4.41 0 6.1 2.15 6.1 4.63a4.131 4.131 0 0 1-3.35 4.21v.05c2.6.62 3.82 2.3 3.82 4.5 0 2.59-1.68 4.91-6.22 4.91zm-.18-16.7h-5.21v6.51h4.96c2.73 0 4.39-1.04 4.39-3.31.01-1.93-1.38-3.2-4.14-3.2zm-.32 8.07h-4.89v7.03h5.41c2.83 0 4.41-1.24 4.41-3.51.01-2.48-1.93-3.52-4.93-3.52z" class="cls-1" data-name="Path 308" transform="translate(102 110)"/>
        <path id="Path_309" d="M56.86 18.65v-3.39l8.98-10.81h-8.38V.35h14.68v3.51L63.4 14.67h8.73v3.98z" class="cls-1" data-name="Path 309" transform="translate(102 110)"/>
        <path id="Path_310" d="M78.48 18.65V.35h13.09v4.11h-8.13v2.97h5.8v3.86h-5.8v3.39H92v3.98H78.48z" class="cls-1" data-name="Path 310" transform="translate(102 110)"/>
        <path id="Path_311" d="M98.24 18.65V.35h7.17c4.71 0 7.59 1.56 7.59 5.96 0 2.87-1.21 4.53-3.62 5.34l3.89 7h-5.26l-3.55-6.36h-1.36v6.36zm4.87-10.11h2.13c2.03 0 2.93-.57 2.93-2.1s-.89-2.08-2.93-2.08h-2.13z" class="cls-1" data-name="Path 311" transform="translate(102 110)"/>
        <path id="Path_312" d="M117.69 9.5c0-6.7 4.59-9.5 9.03-9.5 4.41 0 9 2.8 9 9.5s-4.59 9.5-9 9.5c-4.45 0-9.03-2.8-9.03-9.5zm13.06 0c0-3.36-1.46-5.42-4.04-5.42-2.6 0-4.07 2.05-4.07 5.42s1.46 5.54 4.07 5.54c2.58 0 4.04-2.17 4.04-5.54z" class="cls-1" data-name="Path 312" transform="translate(102 110)"/>
    </g>
</svg>